<svg width="761" height="157" viewBox="0 0 761 157" fill="none" xmlns="http://www.w3.org/2000/svg">
<path fill-rule="evenodd" clip-rule="evenodd" d="M0 0L31.2 16.5635V124.747H156V156H0V0Z" fill="#A0148E"/>
<path fill-rule="evenodd" clip-rule="evenodd" d="M62.5 94L62.5 32L77.7671 40.3966L93.5 32.154L93.5 94L62.5 94Z" fill="#A0148E"/>
<path fill-rule="evenodd" clip-rule="evenodd" d="M125 94L125 16.4157L156 0L156 94L125 94Z" fill="#A0148E"/>
<path d="M288.47 101.8H251.03V38.23C251.03 35.24 249.6 34.46 247.26 34.46H234.39C232.05 34.46 230.62 35.24 230.62 38.23V116.23C230.62 118.57 231.4 120 234.39 120H288.47C291.46 120 292.24 118.57 292.24 116.23V105.57C292.24 103.23 291.46 101.8 288.47 101.8ZM389.484 34.33H377.004C372.714 34.33 372.064 37.19 371.154 38.75L353.214 70.73L335.404 38.75C334.364 37.19 333.844 34.33 329.424 34.33H316.554C313.564 34.33 312.784 35.76 312.784 38.1V116.23C312.784 119.22 314.214 120 316.554 120H329.424C331.764 120 333.194 119.22 333.194 116.23V72.16L346.324 94.91C346.974 95.95 348.014 97.64 349.964 97.64H356.464C358.414 97.64 359.584 95.95 360.234 94.91L373.234 72.16V116.23C373.234 119.22 374.664 120 377.004 120H389.484C391.824 120 393.254 119.22 393.254 116.23V38.1C393.254 35.76 392.474 34.33 389.484 34.33ZM492.522 116.36L463.792 38.49C462.622 35.76 461.322 34.46 458.462 34.46H445.982C443.122 34.46 441.692 35.76 440.652 38.49L411.792 116.36C411.142 117.92 411.142 120 414.002 120H427.652C430.512 120 431.552 119.22 432.592 116.1L436.232 105.83H468.082L471.722 116.1C472.762 119.22 473.802 120 476.662 120H490.312C493.172 120 493.172 117.92 492.522 116.36ZM442.472 87.63L452.222 58.9L461.972 87.63H442.472ZM580.698 115.84L562.368 89.19C570.428 86.46 580.438 76.97 580.438 63.32C580.438 55 577.708 47.59 572.898 42.91C567.438 37.45 561.198 34.59 547.028 34.59H514.268C511.278 34.59 510.628 36.02 510.628 38.36V116.23C510.628 119.22 511.928 120 514.268 120H527.138C529.478 120 530.908 119.22 530.908 116.23V52.79H548.198C554.958 52.79 560.158 57.08 560.158 63.84C560.158 69.95 554.178 74.37 547.808 74.37H545.208C542.218 74.37 541.438 75.8 541.438 78.14V88.54C541.438 92.18 541.698 93.61 542.868 95.17L556.908 116.1C558.728 118.83 560.288 120 563.408 120H578.748C581.218 120 581.868 117.66 580.698 115.84ZM674.95 34.46H657.4C654.41 34.46 653.5 34.72 650.9 37.58L623.99 67.22V38.23C623.99 35.24 622.56 34.46 620.35 34.46H607.48C605.01 34.46 603.71 35.24 603.71 38.23V116.23C603.71 119.22 605.01 120 607.48 120H620.35C622.56 120 623.99 119.22 623.99 116.23V93.09L632.05 84.64C639.07 96.34 650.64 115.84 650.64 115.84C652.33 118.57 654.02 120 657.14 120H673C675.47 120 675.99 117.53 674.95 115.84L647 69.82L676.25 38.1C677.42 36.93 677.42 34.46 674.95 34.46ZM753.118 34.46H692.798C689.808 34.46 689.028 35.89 689.028 38.23V49.02C689.028 51.36 689.808 52.79 692.798 52.79H712.818V116.23C712.818 119.22 714.248 120 716.588 120H729.458C731.798 120 733.228 119.22 733.228 116.23V52.79H753.118C756.108 52.79 756.888 51.36 756.888 49.02V38.23C756.888 35.89 756.108 34.46 753.118 34.46Z" fill="#A0148E"/>
</svg>
