<svg width="139" height="28" viewBox="0 0 139 28" fill="none" xmlns="http://www.w3.org/2000/svg">
<path fill-rule="evenodd" clip-rule="evenodd" d="M0 0L5.60001 2.97294V22.3905H28V28H0V0Z" fill="#A0148E"/>
<path fill-rule="evenodd" clip-rule="evenodd" d="M11.2171 16.8718L11.2171 5.74359L13.9574 7.25068L16.7812 5.77122L16.7812 16.8718L11.2171 16.8718Z" fill="#A0148E"/>
<path fill-rule="evenodd" clip-rule="evenodd" d="M22.4359 16.8718L22.4359 2.94641L28 0L28 16.8718L22.4359 16.8718Z" fill="#A0148E"/>
<path d="M52.4573 18.64H45.5453V6.90399C45.5453 6.35199 45.2813 6.20799 44.8493 6.20799H42.4733C42.0413 6.20799 41.7773 6.35199 41.7773 6.90399V21.304C41.7773 21.736 41.9213 22 42.4733 22H52.4573C53.0093 22 53.1533 21.736 53.1533 21.304V19.336C53.1533 18.904 53.0093 18.64 52.4573 18.64Z" fill="#A0148E"/>
<path d="M71.1061 6.18399H68.8021C68.0101 6.18399 67.8901 6.71199 67.7221 6.99999L64.4101 12.904L61.1221 6.99999C60.9301 6.71199 60.8341 6.18399 60.0181 6.18399H57.6421C57.0901 6.18399 56.9461 6.44799 56.9461 6.87999V21.304C56.9461 21.856 57.2101 22 57.6421 22H60.0181C60.4501 22 60.7141 21.856 60.7141 21.304V13.168L63.1381 17.368C63.2581 17.56 63.4501 17.872 63.8101 17.872H65.0101C65.3701 17.872 65.5861 17.56 65.7061 17.368L68.1061 13.168V21.304C68.1061 21.856 68.3701 22 68.8021 22H71.1061C71.5381 22 71.8021 21.856 71.8021 21.304V6.87999C71.8021 6.44799 71.6581 6.18399 71.1061 6.18399Z" fill="#A0148E"/>
<path d="M90.1285 21.328L84.8245 6.95199C84.6085 6.44799 84.3685 6.20799 83.8405 6.20799H81.5365C81.0085 6.20799 80.7445 6.44799 80.5525 6.95199L75.2245 21.328C75.1045 21.616 75.1045 22 75.6325 22H78.1525C78.6805 22 78.8725 21.856 79.0645 21.28L79.7365 19.384H85.6165L86.2885 21.28C86.4805 21.856 86.6725 22 87.2005 22H89.7205C90.2485 22 90.2485 21.616 90.1285 21.328ZM80.8885 16.024L82.6885 10.72L84.4885 16.024H80.8885Z" fill="#A0148E"/>
<path d="M106.407 21.232L103.023 16.312C104.511 15.808 106.359 14.056 106.359 11.536C106.359 9.99999 105.855 8.63199 104.967 7.76799C103.959 6.75999 102.807 6.23199 100.191 6.23199H94.1431C93.5911 6.23199 93.4711 6.49599 93.4711 6.92799V21.304C93.4711 21.856 93.7111 22 94.1431 22H96.5191C96.9511 22 97.2151 21.856 97.2151 21.304V9.59199H100.407C101.655 9.59199 102.615 10.384 102.615 11.632C102.615 12.76 101.511 13.576 100.335 13.576H99.8551C99.3031 13.576 99.1591 13.84 99.1591 14.272V16.192C99.1591 16.864 99.2071 17.128 99.4231 17.416L102.015 21.28C102.351 21.784 102.639 22 103.215 22H106.047C106.503 22 106.623 21.568 106.407 21.232Z" fill="#A0148E"/>
<path d="M123.807 6.20799H120.567C120.015 6.20799 119.847 6.25599 119.367 6.78399L114.399 12.256V6.90399C114.399 6.35199 114.135 6.20799 113.727 6.20799H111.351C110.895 6.20799 110.655 6.35199 110.655 6.90399V21.304C110.655 21.856 110.895 22 111.351 22H113.727C114.135 22 114.399 21.856 114.399 21.304V17.032L115.887 15.472C117.183 17.632 119.319 21.232 119.319 21.232C119.631 21.736 119.943 22 120.519 22H123.447C123.903 22 123.999 21.544 123.807 21.232L118.647 12.736L124.047 6.87999C124.263 6.66399 124.263 6.20799 123.807 6.20799Z" fill="#A0148E"/>
<path d="M138.239 6.20799H127.103C126.551 6.20799 126.407 6.47199 126.407 6.90399V8.89599C126.407 9.32799 126.551 9.59199 127.103 9.59199H130.799V21.304C130.799 21.856 131.063 22 131.495 22H133.871C134.303 22 134.567 21.856 134.567 21.304V9.59199H138.239C138.791 9.59199 138.935 9.32799 138.935 8.89599V6.90399C138.935 6.47199 138.791 6.20799 138.239 6.20799Z" fill="#A0148E"/>
</svg>
