<svg width="14" height="16" viewBox="0 0 14 16" fill="none" xmlns="http://www.w3.org/2000/svg">
<path fill-rule="evenodd" clip-rule="evenodd" d="M7.31865 10.4579C9.18578 9.95757 10.2938 8.03839 9.79353 6.17126C9.29323 4.30413 7.37405 3.19609 5.50692 3.69639C3.63979 4.19669 2.53175 6.11586 3.03205 7.983C3.53234 9.85013 5.45152 10.9582 7.31865 10.4579ZM7.70688 11.9068C10.3742 11.192 11.9571 8.45036 11.2424 5.78303C10.5277 3.1157 7.78602 1.53279 5.11869 2.2475C2.45136 2.96221 0.868449 5.70389 1.58316 8.37122C2.29787 11.0386 5.03955 12.6215 7.70688 11.9068Z" fill="#A0148E"/>
<path fill-rule="evenodd" clip-rule="evenodd" d="M12.8957 15.2027L8.4151 10.682L9.48047 9.62607L13.9611 14.1468L12.8957 15.2027Z" fill="#A0148E"/>
</svg>
