<?xml version="1.0" encoding="utf-8"?><svg viewBox="0 0 761 157" xmlns="http://www.w3.org/2000/svg" xmlns:xlink="http://www.w3.org/1999/xlink"><style>:root>svg{display:none}:root>svg:target{display:block}</style><svg viewBox="0 0 15 15" id="catalog" xmlns="http://www.w3.org/2000/svg"><path d="M0 1.5h3m3 0h3m3 0h3m-15 6h3m3 0h3m3 0h3m-15 6h3m3 0h3m3 0h3"/></svg><svg viewBox="0 0 21 16" id="contrast" xmlns="http://www.w3.org/2000/svg"><path d="M20.5 15h-14m-2 0h-4m20-7h-14m-2 0h-4m20-7h-14m-2 0h-4"/></svg><svg viewBox="0 0 22 19" id="favor" xmlns="http://www.w3.org/2000/svg"><path d="M20.223 1.764a6.094 6.094 0 00-4.305-1.75 6.11 6.11 0 00-4.31 1.755l-.601.59-.611-.6A6.125 6.125 0 006.082 0a6.103 6.103 0 00-4.3 1.75A5.871 5.871 0 000 5.984c0 1.599.639 3.097 1.791 4.228l8.759 8.605a.635.635 0 00.886.005l8.778-8.591A5.895 5.895 0 0022 5.997a5.867 5.867 0 00-1.777-4.233zm-.895 7.592l-8.335 8.155-8.316-8.17A4.675 4.675 0 011.26 5.985c0-1.27.5-2.46 1.413-3.354a4.839 4.839 0 013.41-1.388c1.292 0 2.51.494 3.423 1.392L10.56 3.67a.636.636 0 00.891 0l1.045-1.026a4.854 4.854 0 013.419-1.393c1.287 0 2.5.495 3.414 1.388a4.67 4.67 0 011.413 3.358 4.652 4.652 0 01-1.413 3.359z"/></svg><svg viewBox="0 0 19 18" id="fb" xmlns="http://www.w3.org/2000/svg"><path d="M17.675 0H1.747A.988.988 0 00.76.988v15.928c0 .545.442.987.988.987h8.575V10.98H7.998V8.27h2.325V6.275c0-2.312 1.412-3.571 3.475-3.571.988 0 1.838.073 2.085.106v2.418h-1.422c-1.123 0-1.34.533-1.34 1.316V8.27h2.683l-.35 2.71h-2.333v6.923h4.554a.988.988 0 00.988-.988V.987A.988.988 0 0017.675 0z"/></svg><svg viewBox="0 0 19 18" id="ins" xmlns="http://www.w3.org/2000/svg"><path d="M16.197 0H3.539A2.626 2.626 0 00.916 2.623V15.28a2.626 2.626 0 002.623 2.622h12.658a2.626 2.626 0 002.622-2.622V2.623A2.626 2.626 0 0016.197 0zM9.903 13.637a4.726 4.726 0 01-4.721-4.72 4.726 4.726 0 014.72-4.72 4.726 4.726 0 014.721 4.72 4.726 4.726 0 01-4.72 4.72zm5.245-8.392a1.575 1.575 0 01-1.574-1.573c0-.868.706-1.574 1.574-1.574.867 0 1.573.706 1.573 1.574 0 .867-.706 1.573-1.573 1.573z"/><path d="M15.148 3.147a.525.525 0 100 1.05.525.525 0 000-1.05zM9.903 5.245A3.676 3.676 0 006.23 8.917a3.676 3.676 0 003.672 3.671 3.676 3.676 0 003.671-3.671 3.676 3.676 0 00-3.671-3.672z"/><defs><linearGradient id="epaint0_linear" x1="9.868" y1="0" x2="9.868" y2="17.903" gradientUnits="userSpaceOnUse"><stop stop-color="#F200A3"/><stop offset=".495" stop-color="red"/><stop offset="1" stop-color="#FFC100"/></linearGradient><linearGradient id="epaint1_linear" x1="9.868" y1="0" x2="9.868" y2="17.903" gradientUnits="userSpaceOnUse"><stop stop-color="#F200A3"/><stop offset=".495" stop-color="red"/><stop offset="1" stop-color="#FFC100"/></linearGradient><linearGradient id="epaint2_linear" x1="9.868" y1="0" x2="9.868" y2="17.903" gradientUnits="userSpaceOnUse"><stop stop-color="#F200A3"/><stop offset=".495" stop-color="red"/><stop offset="1" stop-color="#FFC100"/></linearGradient></defs></svg><svg viewBox="0 0 761 157" id="logo" xmlns="http://www.w3.org/2000/svg"><path fill-rule="evenodd" clip-rule="evenodd" d="M0 0l31.2 16.564v108.183H156V156H0V0z"/><path fill-rule="evenodd" clip-rule="evenodd" d="M62.5 94V32l15.267 8.397L93.5 32.154V94h-31zM125 94V16.416L156 0v94h-31z"/><path d="M288.47 101.8h-37.44V38.23c0-2.99-1.43-3.77-3.77-3.77h-12.87c-2.34 0-3.77.78-3.77 3.77v78c0 2.34.78 3.77 3.77 3.77h54.08c2.99 0 3.77-1.43 3.77-3.77v-10.66c0-2.34-.78-3.77-3.77-3.77zm101.014-67.47h-12.48c-4.29 0-4.94 2.86-5.85 4.42l-17.94 31.98-17.81-31.98c-1.04-1.56-1.56-4.42-5.98-4.42h-12.87c-2.99 0-3.77 1.43-3.77 3.77v78.13c0 2.99 1.43 3.77 3.77 3.77h12.87c2.34 0 3.77-.78 3.77-3.77V72.16l13.13 22.75c.65 1.04 1.69 2.73 3.64 2.73h6.5c1.95 0 3.12-1.69 3.77-2.73l13-22.75v44.07c0 2.99 1.43 3.77 3.77 3.77h12.48c2.34 0 3.77-.78 3.77-3.77V38.1c0-2.34-.78-3.77-3.77-3.77zm103.038 82.03l-28.73-77.87c-1.17-2.73-2.47-4.03-5.33-4.03h-12.48c-2.86 0-4.29 1.3-5.33 4.03l-28.86 77.87c-.65 1.56-.65 3.64 2.21 3.64h13.65c2.86 0 3.9-.78 4.94-3.9l3.64-10.27h31.85l3.64 10.27c1.04 3.12 2.08 3.9 4.94 3.9h13.65c2.86 0 2.86-2.08 2.21-3.64zm-50.05-28.73l9.75-28.73 9.75 28.73h-19.5zm138.226 28.21l-18.33-26.65c8.06-2.73 18.07-12.22 18.07-25.87 0-8.32-2.73-15.73-7.54-20.41-5.46-5.46-11.7-8.32-25.87-8.32h-32.76c-2.99 0-3.64 1.43-3.64 3.77v77.87c0 2.99 1.3 3.77 3.64 3.77h12.87c2.34 0 3.77-.78 3.77-3.77V52.79h17.29c6.76 0 11.96 4.29 11.96 11.05 0 6.11-5.98 10.53-12.35 10.53h-2.6c-2.99 0-3.77 1.43-3.77 3.77v10.4c0 3.64.26 5.07 1.43 6.63l14.04 20.93c1.82 2.73 3.38 3.9 6.5 3.9h15.34c2.47 0 3.12-2.34 1.95-4.16zm94.252-81.38H657.4c-2.99 0-3.9.26-6.5 3.12l-26.91 29.64V38.23c0-2.99-1.43-3.77-3.64-3.77h-12.87c-2.47 0-3.77.78-3.77 3.77v78c0 2.99 1.3 3.77 3.77 3.77h12.87c2.21 0 3.64-.78 3.64-3.77V93.09l8.06-8.45c7.02 11.7 18.59 31.2 18.59 31.2 1.69 2.73 3.38 4.16 6.5 4.16H673c2.47 0 2.99-2.47 1.95-4.16L647 69.82l29.25-31.72c1.17-1.17 1.17-3.64-1.3-3.64zm78.168 0h-60.32c-2.99 0-3.77 1.43-3.77 3.77v10.79c0 2.34.78 3.77 3.77 3.77h20.02v63.44c0 2.99 1.43 3.77 3.77 3.77h12.87c2.34 0 3.77-.78 3.77-3.77V52.79h19.89c2.99 0 3.77-1.43 3.77-3.77V38.23c0-2.34-.78-3.77-3.77-3.77z"/></svg><svg viewBox="0 0 25 22" id="market" xmlns="http://www.w3.org/2000/svg"><path d="M.5 1h3.68c.46 0 .92.444 1.38.889.46.444.92 2.222.92 2.222l.03.445m3.152 14.666h-.92S7.4 18.778 7.4 17.89s-.356-5.333-.356-5.333m2.618 6.666s0-1.778 1.84-1.778 1.84 1.778 1.84 1.778m-3.68 0s0 1.778 1.84 1.778 1.84-1.778 1.84-1.778m0 0h3.68m0 0s0-1.778 1.84-1.778 1.84 1.778 1.84 1.778 0 1.778-1.84 1.778-1.84-1.778-1.84-1.778zM6.51 4.556H23.5v6.666c0 1.334-1.84 1.334-1.84 1.334H7.044m-.534-8l.534 8"/></svg><svg viewBox="0 0 18 17" id="menu" xmlns="http://www.w3.org/2000/svg"><path d="M0 6h2.5M5 6h2.5M10 6h2.5M0 11h2.5M5 11h2.5m2.5 0h2.5M0 16h2.5M5 16h2.5m2.5 0h2.5M15 6h2.5M15 11h2.5M15 16h2.5M0 1h2.5M5 1h2.5M10 1h2.5M15 1h2.5"/></svg><svg viewBox="0 0 22 22" id="phone" xmlns="http://www.w3.org/2000/svg"><path fill-rule="evenodd" clip-rule="evenodd" d="M7.889 5.68a.707.707 0 00.164-.864L5.829.727a.707.707 0 00-.894-.324L.76 2.003a.703.703 0 00-.44.672C.384 4.699.893 9.7 5.385 14.912c4.491 5.211 9.362 6.452 11.355 6.813.29.051.58-.083.73-.336l2.198-3.893a.706.706 0 00-.187-.93l-3.716-2.802a.707.707 0 00-.88.034l-1.694 1.46a.702.702 0 01-.601.159c-.774-.158-2.692-.743-4.498-2.838C6.286 10.484 5.99 8.501 5.95 7.712a.702.702 0 01.244-.571l1.696-1.46zm-2.347.702c-.401.344-.62.855-.592 1.383.05.95.399 3.164 2.384 5.467 1.985 2.303 4.123 2.975 5.056 3.165a1.702 1.702 0 001.454-.382h.002l1.512-1.305 3.32 2.504-1.97 3.487c-1.977-.384-6.428-1.64-10.567-6.442C2.002 9.456 1.417 4.868 1.328 2.857l3.74-1.434 1.988 3.654-1.513 1.304-.001.001zM12.932 1.286l.062-.497.062-.496h.002l.004.001.01.002.04.005.143.023c.121.021.294.054.508.103A11.5 11.5 0 0115.43.95c1.3.52 2.902 1.446 3.98 3.062a9.77 9.77 0 011.58 4.347c.067.593.067 1.088.05 1.439a6.67 6.67 0 01-.046.526l-.005.033-.001.01v.003c0 .001 0 .002-.494-.08a88.745 88.745 0 00-.493-.082v-.003l.003-.02.01-.085a5.62 5.62 0 00.027-.35 8.769 8.769 0 00-1.463-5.183c-.923-1.384-2.32-2.208-3.52-2.688a10.496 10.496 0 00-1.973-.57 4.968 4.968 0 00-.119-.019l-.028-.004h-.006zm-.46 3l.059-.497.06-.496h.003l.009.002.027.003.098.015a8.031 8.031 0 011.47.404c.874.334 1.971.934 2.713 1.997.72 1.03.99 2.06 1.08 2.833.044.387.045.711.033.942a4.243 4.243 0 01-.032.351l-.004.023v.008l-.001.003s0 .002-.493-.085L17 9.704l.002-.009.006-.048c.005-.046.012-.116.017-.208.009-.184.009-.452-.029-.776a5.185 5.185 0 00-.906-2.377c-.581-.832-1.47-1.337-2.25-1.635a7.033 7.033 0 00-1.275-.35 3.36 3.36 0 00-.075-.012l-.017-.003h-.003z"/></svg><svg viewBox="0 0 21 23" id="profile" xmlns="http://www.w3.org/2000/svg"><path d="M7.184 12.87S1.5 15.152 1.5 17.89C1.5 20.631 4.342 22 6.237 22h8.526c1.895 0 4.737-1.37 4.737-4.109s-5.684-5.021-5.684-5.021M10.5 1C8.132 1 6.237 3.693 6.237 6.478c0 2.785 1.895 5.479 4.263 5.479s4.263-2.74 4.263-5.479S12.868 1 10.5 1z"/></svg><svg viewBox="0 0 14 16" id="search" xmlns="http://www.w3.org/2000/svg"><circle cx="6.413" cy="7.077" r="4.25" transform="rotate(-15 6.413 7.077)"/><path d="M8.947 10.154l4.48 4.521"/></svg><svg viewBox="0 0 15 26" id="slider-link" xmlns="http://www.w3.org/2000/svg"><path d="M14 1L2 13l12 12"/></svg><svg viewBox="0 0 21 17" id="tg" xmlns="http://www.w3.org/2000/svg"><path d="M8.568 11.148l-.339 4.713c.485 0 .694-.206.946-.453l2.27-2.148 4.704 3.41c.863.476 1.471.226 1.704-.785L20.94 1.56c.274-1.263-.46-1.757-1.301-1.447L1.489 6.993c-1.239.475-1.22 1.159-.21 1.469l4.64 1.429 10.779-6.677c.507-.333.968-.149.589.184l-8.72 7.75z"/></svg><svg viewBox="0 0 46 65" id="type-brass" xmlns="http://www.w3.org/2000/svg"><path d="M33.967 56.747a.961.961 0 00-1.302.383 5.159 5.159 0 01-.704.988 4.994 4.994 0 01-3.743 1.66.96.96 0 000 1.919 6.893 6.893 0 005.165-2.29 7.06 7.06 0 00.966-1.355.96.96 0 00-.382-1.305z"/><path d="M44.48 27.166L32.7 15.814a2.602 2.602 0 00-4.079 3.143l-3.549 7.45a15.77 15.77 0 00-1.29 9.616l2.31 12.824a.811.811 0 01-1.59.315c-.666-3.51-2.255-11.924-3.693-19.615.194-.148.366-.323.511-.52a2.593 2.593 0 00-1.35-3.992l-.354-1.892a2.594 2.594 0 00-.852-4.643l-.325-1.774a2.597 2.597 0 00-.884-4.745l-.835-4.46A9.22 9.22 0 005.753.2L.763 1.258A.96.96 0 000 2.197v2.67a.96.96 0 001.1.95l4.723-.696a4.136 4.136 0 014.68 3.429l7.584 47.782a10.258 10.258 0 0020.34-2.619l-.883-8.944a13.93 13.93 0 012.505-9.426l2.624-3.7a2.603 2.603 0 001.806-4.477zm-26.917-6.543a.685.685 0 111.115.797.685.685 0 01-1.115-.797zm1.08 6.494a.686.686 0 111.116.797.686.686 0 01-1.116-.797zM17.601 14.93a.685.685 0 11-.677-1.072H16.938a.684.684 0 01.663 1.075v-.002zm20.885 19.304a15.85 15.85 0 00-2.852 10.725l.883 8.945a8.34 8.34 0 01-16.534 2.13L12.398 8.247a6.065 6.065 0 00-6.855-5.027l-3.624.534v-.78l4.23-.898a7.299 7.299 0 018.685 5.797l.832 4.442a2.601 2.601 0 00.888 4.771l.306 1.666a2.595 2.595 0 00.888 4.842c.097.52.196 1.053.299 1.598a2.57 2.57 0 00-1.415 2.75 2.601 2.601 0 002.328 2.156 8600.75 8600.75 0 003.657 19.426 2.717 2.717 0 003.103 2.181 2.713 2.713 0 002.31-2.692 3.064 3.064 0 00-.044-.489l-2.313-12.841a13.855 13.855 0 011.133-8.45l3.221-6.764L40.849 30.9l-2.363 3.334zm4.746-4.797a.683.683 0 01-1.031.096L30.42 18.181a.686.686 0 01.95-.987L43.15 28.548a.679.679 0 01.08.888l.003.001z"/><path d="M35.388 31.349a3.427 3.427 0 10-3.984 5.576 3.427 3.427 0 003.984-5.576zm-1.746 4.277a1.509 1.509 0 01-.494-2.975 1.509 1.509 0 11.495 2.975zM30.235 44.392a2.584 2.584 0 001.942.45 2.606 2.606 0 10-1.942-.45zm1.402-2.797a.69.69 0 11.232 1.358.69.69 0 01-.232-1.358z"/></svg><svg viewBox="0 0 42 59" id="type-drum" xmlns="http://www.w3.org/2000/svg"><path d="M41.034 7.701l-.602-2.5A6.773 6.773 0 0033.828 0H7.23A6.773 6.773 0 00.626 5.202l-.602 2.5a.864.864 0 00.84 1.066h1.509l2.875 20.763A12.732 12.732 0 0010.304 38L6.508 57.508a.865.865 0 00.849 1.03h26.347a.865.865 0 00.849-1.03l-3.796-19.509a12.733 12.733 0 005.053-8.468l2.875-20.763h1.51a.865.865 0 00.839-1.067zM6.961 29.294L4.529 11.732h6.763c.044 12.297 1.037 20.804 3.1 26.47a11.045 11.045 0 01-7.431-8.908zm21.08-17.562c-.047 12.919-1.137 21.52-3.412 26.943-.47.065-.943.1-1.417.103h-1.818V11.732h6.646zm-8.376 27.046h-1.818a10.79 10.79 0 01-1.417-.103c-2.277-5.422-3.366-14.024-3.41-26.943h6.645v27.046zm12.413 15.067H8.98l1.41-7.246 2.433 1.966a.864.864 0 001.087 0l3.038-2.45 3.038 2.45a.865.865 0 001.087 0l3.033-2.45 3.038 2.45a.864.864 0 001.087 0l2.438-1.967 1.41 7.247zM8.404 56.81l.24-1.235h23.77l.24 1.235H8.405zm21.891-12.132l-2.608 2.105-3.038-2.452a.864.864 0 00-1.087 0l-3.033 2.452-3.038-2.452a.865.865 0 00-1.087 0l-3.038 2.452-2.603-2.104 1.107-5.692c2.521 1.437 5.304 1.519 5.977 1.522h5.365c.673-.004 3.555-.112 5.975-1.522l1.108 5.691zm3.804-15.384a11.047 11.047 0 01-7.43 8.91c2.064-5.667 3.056-14.174 3.1-26.47h6.76l-2.43 17.56zm2.67-19.29H4.29l-.17-1.235H36.94l-.17 1.235zM1.962 7.04l.346-1.432A5.05 5.05 0 017.23 1.729h26.597a5.05 5.05 0 014.924 3.877l.345 1.433H1.962z"/><path d="M30.191 2.964h-4.323a.865.865 0 000 1.729h4.323a.865.865 0 000-1.729z"/></svg><svg viewBox="0 0 65 65" id="type-guitar" xmlns="http://www.w3.org/2000/svg"><path d="M33.912 44.794c.197 0 .388-.06.549-.173a16.52 16.52 0 002.365-1.865 5.457 5.457 0 001.32-2.092.96.96 0 00-1.816-.624c-.18.513-.474.977-.861 1.358a15.197 15.197 0 01-2.111 1.653.96.96 0 00.552 1.745l.002-.002z"/><path d="M64.718 6.31L58.68.27a.987.987 0 00-1.357 0l-1.366 1.366-.733-.733a.96.96 0 00-1.358 1.358l.734.732-1.716 1.716-.734-.733a.96.96 0 10-1.357 1.358l.733.733-.95.95a.96.96 0 00-.235.385l-1.144 3.545-15.07 15.07c-5.15-3.64-10.662-3.742-14.216-.183a19.739 19.739 0 00-2.249 2.817 21.47 21.47 0 01-2.496 3.11c-1.363 1.362-2.59 1.685-4.144 2.095a14.27 14.27 0 00-7.469 4.23C.62 41.016-.53 44.6.227 48.454c.658 3.364 2.764 6.9 6.088 10.225 3.325 3.325 6.86 5.425 10.226 6.086.747.148 1.508.224 2.27.226a11.265 11.265 0 008.093-3.555 14.267 14.267 0 004.23-7.468c.409-1.554.732-2.782 2.094-4.144a21.447 21.447 0 013.11-2.497 19.749 19.749 0 002.82-2.25c3.56-3.553 3.456-9.065-.183-14.215l15.07-15.07 3.545-1.144a.955.955 0 00.384-.235l.95-.95.734.732a.96.96 0 101.357-1.357l-.733-.733 1.716-1.716.733.733a.958.958 0 001.579-.303.962.962 0 00-.221-1.054l-.733-.734 1.365-1.365a.96.96 0 00-.002-1.357zM28.19 38.93a5.357 5.357 0 00-2.132-2.132l23.983-23.98 2.13 2.13-23.98 23.982zm-4.694-.865a3.429 3.429 0 11-.001 6.857 3.429 3.429 0 010-6.857zm14.303 5.656a17.995 17.995 0 01-2.562 2.03 23.324 23.324 0 00-3.368 2.714c-1.73 1.729-2.17 3.4-2.595 5.013a12.466 12.466 0 01-3.73 6.6c-2.492 2.493-5.398 3.434-8.637 2.797-2.99-.586-6.184-2.51-9.237-5.559-3.053-3.05-4.974-6.244-5.562-9.234-.636-3.24.306-6.144 2.8-8.637a12.465 12.465 0 016.6-3.73c1.614-.426 3.284-.865 5.014-2.596a23.314 23.314 0 002.713-3.368 17.985 17.985 0 012.03-2.562c2.792-2.797 7.218-2.687 11.482.202l-8.777 8.777a5.348 5.348 0 104.846 4.846l8.777-8.776c2.893 4.264 3.002 8.69.206 11.483zm18.98-30.828l-2.985.962-2.66-2.66.963-2.984L58 2.307l4.682 4.681-1.364 1.366-3.072 3.072-1.468 1.467z"/><path d="M13.14 45.642a.958.958 0 00-1.358 0l-2.325 2.327a.96.96 0 000 1.357l6.204 6.204a.96.96 0 001.357 0l2.327-2.327a.96.96 0 000-1.358l-6.205-6.203zm3.2 7.854l-4.849-4.848.97-.97 4.848 4.848-.97.97z"/></svg><svg viewBox="0 0 62 44" id="type-keyboards" xmlns="http://www.w3.org/2000/svg"><path d="M60.726 0H.91A.91.91 0 000 .91v41.412a.91.91 0 00.91.91h59.816a.91.91 0 00.91-.91V.91a.911.911 0 00-.91-.91zm-.91 1.82v13.337H1.82V1.82h57.996zM7.242 31.976h-1.3V16.978h1.3v14.998zm.91 1.82a.91.91 0 00.91-.91V16.978h1.981v15.908a.91.91 0 00.91.91h.65v7.615H7.503v-7.615h.65zm6.012-1.82h-1.3V16.978h1.3v14.998zm.26 1.82h.65a.91.91 0 00.91-.91V16.978h3.542V41.41h-5.102v-7.615zm6.922-16.818h3.543v15.908a.911.911 0 00.91.91h.65v7.615h-5.103V16.978zm6.664 14.998h-1.3V16.978h1.3v14.998zm.26 1.82h.65a.91.91 0 00.91-.91V16.978h1.977v15.908a.91.91 0 00.91.91h.65v7.615H28.27v-7.615zm6.662-1.82h-1.305V16.978h1.3l.005 14.998zm.26 1.82h.65a.91.91 0 00.91-.91V16.978h1.98v15.908a.91.91 0 00.91.91h.651v7.615h-5.105l.004-7.615zm6.661-1.82h-1.3V16.978h1.3v14.998zm.26 1.82h.65a.91.91 0 00.91-.91V16.978h3.54V41.41h-5.101l.001-7.615zm6.92-16.818h3.541v15.908a.911.911 0 00.91.91h.65v7.615h-5.1V16.978zm6.662 14.998h-1.3V16.978h1.3v14.998zM1.82 16.978h2.301v15.908a.91.91 0 00.91.91h.65v7.615h-3.86V16.978zM55.955 41.41v-7.615h.65a.91.91 0 00.91-.91V16.978h2.301V41.41h-3.86z"/><path d="M43.863 4.941h5.332a.91.91 0 000-1.82h-5.332a.91.91 0 000 1.82zM19.895 10.96H41.74a.91.91 0 00.91-.91V6.929a.91.91 0 00-.91-.91H19.895a.91.91 0 00-.91.91v3.12a.91.91 0 00.91.91zm.91-3.121H40.83v1.3H20.805v-1.3zM13.068 10.96a2.47 2.47 0 100-4.941 2.47 2.47 0 000 4.94zm0-3.121a.65.65 0 110 1.3.65.65 0 010-1.3zM6.826 10.96a2.47 2.47 0 100-4.941 2.47 2.47 0 000 4.94zm0-3.121a.65.65 0 110 1.3.65.65 0 010-1.3zM46.098 8.49a2.471 2.471 0 104.942 0 2.471 2.471 0 00-4.942 0zm3.12 0a.65.65 0 11-1.299 0 .65.65 0 011.3 0zM54.81 10.96a2.47 2.47 0 100-4.94 2.47 2.47 0 000 4.94zm0-3.121a.65.65 0 110 1.3.65.65 0 010-1.3z"/></svg><svg viewBox="0 0 62 52" id="type-tongue" xmlns="http://www.w3.org/2000/svg"><path d="M60.194.002H49.748a.892.892 0 00-.892.892v2.414l-2.278-.988a.89.89 0 00-.71 0L42.7 3.696 39.53 2.32a.89.89 0 00-.709 0l-3.17 1.376-3.17-1.376a.89.89 0 00-.71 0l-3.169 1.376-3.17-1.376a.89.89 0 00-.709 0l-2.278.988V.892A.893.893 0 0021.553 0H1.595a.892.892 0 00-.892.892v49.584a.892.892 0 00.892.89h19.958a.892.892 0 00.891-.892v-2.415l2.278.988a.892.892 0 00.71 0l3.17-1.375 3.169 1.375a.892.892 0 00.71 0l3.169-1.375 3.17 1.375a.889.889 0 00.71 0l3.17-1.375 3.169 1.375a.89.89 0 00.709 0l2.278-.988v2.415a.892.892 0 00.892.891h10.446a.892.892 0 00.892-.891V.892a.892.892 0 00-.892-.89zM25.968 4.495l1.742.755v40.867l-1.742.755V4.495zm3.525.755l1.741-.754v42.378l-1.74-.757V5.25zm3.525-.754l1.74.754v40.867l-1.74.755V4.496zm3.524.754l1.74-.755v42.378l-1.74-.756V5.25zm3.524-.755l1.741.755v40.867l-1.74.756V4.495zm3.525.755l1.74-.754v42.378l-1.74-.757V5.25zM7.327 10.206h7.22v1.232h-7.22a.892.892 0 00-.891.891v.637h-3.95V8.677h3.95v.637a.892.892 0 00.891.892zm7.22 4.289H8.218V13.22h6.327v1.274zm-7.22 1.783h7.22v3.95h-7.22a.892.892 0 00-.891.891v.637h-3.95V14.75h3.95v.637a.892.892 0 00.891.891zm7.22 7.007H8.218V22.01h6.327v1.274zm-8.111.255v.636a.892.892 0 00.891.892h7.22V26.3h-7.22a.893.893 0 00-.891.892v.637h-3.95V23.54h3.95zm8.11 5.817H8.22v-1.274h6.327v1.274zm-8.11.254v.637a.892.892 0 00.891.892h7.22v3.95h-7.22a.892.892 0 00-.891.89v.638h-3.95V29.61h3.95zm1.783 7.262h6.327v1.273H8.22v-1.273zm6.327-28.45H8.22V7.148h6.327v1.273zM2.486 38.4h3.95v.637a.892.892 0 00.891.892h7.22v1.231h-7.22a.892.892 0 00-.891.892v.637h-3.95v-4.289zm5.733 4.544h6.327v1.274H8.22v-1.274zm6.327-41.16v3.582H7.327a.892.892 0 00-.891.89v.637h-3.95V1.785h12.06zM2.486 44.474h3.95v.637a.892.892 0 00.891.891h7.22v3.58H2.486v-5.108zm18.175 5.108H16.33V1.785h4.33v47.797zm1.783-44.335l1.741-.754V46.87l-1.74-.754V5.247zm26.412 40.87l-1.74.755V4.495l1.74.755v40.867zm10.446 3.465H50.64V1.785h8.662v47.797z"/><path d="M54.971 11.82a2.421 2.421 0 100-4.842 2.421 2.421 0 000 4.842zm0-3.058a.637.637 0 110 1.274.637.637 0 010-1.274zM54.971 19.962a2.421 2.421 0 100-4.842 2.421 2.421 0 000 4.842zm0-3.058a.637.637 0 110 1.274.637.637 0 010-1.274zM54.971 28.104a2.421 2.421 0 100-4.842 2.421 2.421 0 000 4.842zm0-3.057a.636.636 0 110 1.273.636.636 0 010-1.273zM54.971 36.246a2.42 2.42 0 100-4.84 2.42 2.42 0 000 4.84zm0-3.057a.636.636 0 110 1.273.636.636 0 010-1.273zM54.971 44.389a2.42 2.42 0 100-4.841 2.42 2.42 0 000 4.84zm0-3.058a.636.636 0 110 1.273.636.636 0 010-1.273z"/></svg><svg viewBox="0 0 23 14" id="vk" xmlns="http://www.w3.org/2000/svg"><path d="M22.306 11.964c-.06-.101-.434-.91-2.235-2.575-1.885-1.743-1.632-1.46.639-4.473 1.383-1.835 1.935-2.956 1.762-3.435-.164-.457-1.181-.336-1.181-.336l-3.382.02s-.25-.034-.438.076c-.181.11-.298.362-.298.362s-.536 1.42-1.25 2.628c-1.507 2.548-2.11 2.682-2.357 2.524-.573-.368-.43-1.482-.43-2.272 0-2.47.377-3.5-.732-3.766-.369-.088-.639-.147-1.58-.157-1.207-.012-2.23.005-2.808.286-.385.188-.682.607-.5.63.223.03.73.137.998.5.348.47.335 1.526.335 1.526s.2 2.907-.466 3.269C7.926 7.019 7.3 6.513 5.957 4.2c-.688-1.184-1.209-2.494-1.209-2.494s-.1-.243-.278-.374c-.217-.158-.52-.208-.52-.208l-3.217.02s-.482.013-.66.222c-.157.186-.012.57-.012.57s2.518 5.866 5.368 8.823c2.615 2.71 5.584 2.533 5.584 2.533h1.345s.406-.045.613-.268c.191-.204.184-.588.184-.588s-.027-1.798.812-2.062c.826-.26 1.886 1.737 3.01 2.506.85.581 1.496.454 1.496.454l3.006-.042s1.573-.097.827-1.328z"/></svg></svg>