<?xml version="1.0" encoding="utf-8"?><svg viewBox="0 0 23 18" xmlns="http://www.w3.org/2000/svg" xmlns:xlink="http://www.w3.org/1999/xlink"><style>:root>svg{display:none}:root>svg:target{display:block}</style><svg viewBox="0 0 19 18" id="fb" xmlns="http://www.w3.org/2000/svg"><path d="M17.675 0H1.747A.988.988 0 00.76.988v15.928c0 .545.442.987.988.987h8.575V10.98H7.998V8.27h2.325V6.275c0-2.312 1.412-3.571 3.475-3.571.988 0 1.838.073 2.085.106v2.418h-1.422c-1.123 0-1.34.533-1.34 1.316V8.27h2.683l-.35 2.71h-2.333v6.923h4.554a.988.988 0 00.988-.988V.987A.988.988 0 0017.675 0z"/></svg><svg viewBox="0 0 19 18" id="ins" xmlns="http://www.w3.org/2000/svg"><path d="M16.197 0H3.539A2.626 2.626 0 00.916 2.623V15.28a2.626 2.626 0 002.623 2.622h12.658a2.626 2.626 0 002.622-2.622V2.623A2.626 2.626 0 0016.197 0zM9.903 13.637a4.726 4.726 0 01-4.721-4.72 4.726 4.726 0 014.72-4.72 4.726 4.726 0 014.721 4.72 4.726 4.726 0 01-4.72 4.72zm5.245-8.392a1.575 1.575 0 01-1.574-1.573c0-.868.706-1.574 1.574-1.574.867 0 1.573.706 1.573 1.574 0 .867-.706 1.573-1.573 1.573z"/><path d="M15.148 3.147a.525.525 0 100 1.05.525.525 0 000-1.05zM9.903 5.245A3.676 3.676 0 006.23 8.917a3.676 3.676 0 003.672 3.671 3.676 3.676 0 003.671-3.671 3.676 3.676 0 00-3.671-3.672z"/><defs><linearGradient id="bpaint0_linear" x1="9.868" y1="0" x2="9.868" y2="17.903" gradientUnits="userSpaceOnUse"><stop stop-color="#F200A3"/><stop offset=".495" stop-color="red"/><stop offset="1" stop-color="#FFC100"/></linearGradient><linearGradient id="bpaint1_linear" x1="9.868" y1="0" x2="9.868" y2="17.903" gradientUnits="userSpaceOnUse"><stop stop-color="#F200A3"/><stop offset=".495" stop-color="red"/><stop offset="1" stop-color="#FFC100"/></linearGradient><linearGradient id="bpaint2_linear" x1="9.868" y1="0" x2="9.868" y2="17.903" gradientUnits="userSpaceOnUse"><stop stop-color="#F200A3"/><stop offset=".495" stop-color="red"/><stop offset="1" stop-color="#FFC100"/></linearGradient></defs></svg><svg viewBox="0 0 21 17" id="tg" xmlns="http://www.w3.org/2000/svg"><path d="M8.568 11.148l-.339 4.713c.485 0 .694-.206.946-.453l2.27-2.148 4.704 3.41c.863.476 1.471.226 1.704-.785L20.94 1.56c.274-1.263-.46-1.757-1.301-1.447L1.489 6.993c-1.239.475-1.22 1.159-.21 1.469l4.64 1.429 10.779-6.677c.507-.333.968-.149.589.184l-8.72 7.75z"/></svg><svg viewBox="0 0 23 14" id="vk" xmlns="http://www.w3.org/2000/svg"><path d="M22.306 11.964c-.06-.101-.434-.91-2.235-2.575-1.885-1.743-1.632-1.46.639-4.473 1.383-1.835 1.935-2.956 1.762-3.435-.164-.457-1.181-.336-1.181-.336l-3.382.02s-.25-.034-.438.076c-.181.11-.298.362-.298.362s-.536 1.42-1.25 2.628c-1.507 2.548-2.11 2.682-2.357 2.524-.573-.368-.43-1.482-.43-2.272 0-2.47.377-3.5-.732-3.766-.369-.088-.639-.147-1.58-.157-1.207-.012-2.23.005-2.808.286-.385.188-.682.607-.5.63.223.03.73.137.998.5.348.47.335 1.526.335 1.526s.2 2.907-.466 3.269C7.926 7.019 7.3 6.513 5.957 4.2c-.688-1.184-1.209-2.494-1.209-2.494s-.1-.243-.278-.374c-.217-.158-.52-.208-.52-.208l-3.217.02s-.482.013-.66.222c-.157.186-.012.57-.012.57s2.518 5.866 5.368 8.823c2.615 2.71 5.584 2.533 5.584 2.533h1.345s.406-.045.613-.268c.191-.204.184-.588.184-.588s-.027-1.798.812-2.062c.826-.26 1.886 1.737 3.01 2.506.85.581 1.496.454 1.496.454l3.006-.042s1.573-.097.827-1.328z"/></svg></svg>