<?xml version="1.0" encoding="utf-8"?><svg viewBox="0 0 761 157" xmlns="http://www.w3.org/2000/svg" xmlns:xlink="http://www.w3.org/1999/xlink"><style>:root>svg{display:none}:root>svg:target{display:block}</style><svg viewBox="0 0 19 18" id="fb" xmlns="http://www.w3.org/2000/svg"><path d="M17.675 0H1.747A.988.988 0 00.76.988v15.928c0 .545.442.987.988.987h8.575V10.98H7.998V8.27h2.325V6.275c0-2.312 1.412-3.571 3.475-3.571.988 0 1.838.073 2.085.106v2.418h-1.422c-1.123 0-1.34.533-1.34 1.316V8.27h2.683l-.35 2.71h-2.333v6.923h4.554a.988.988 0 00.988-.988V.987A.988.988 0 0017.675 0z"/></svg><svg viewBox="0 0 19 18" id="ins" xmlns="http://www.w3.org/2000/svg"><path d="M16.197 0H3.539A2.626 2.626 0 00.916 2.623V15.28a2.626 2.626 0 002.623 2.622h12.658a2.626 2.626 0 002.622-2.622V2.623A2.626 2.626 0 0016.197 0zM9.903 13.637a4.726 4.726 0 01-4.721-4.72 4.726 4.726 0 014.72-4.72 4.726 4.726 0 014.721 4.72 4.726 4.726 0 01-4.72 4.72zm5.245-8.392a1.575 1.575 0 01-1.574-1.573c0-.868.706-1.574 1.574-1.574.867 0 1.573.706 1.573 1.574 0 .867-.706 1.573-1.573 1.573z"/><path d="M15.148 3.147a.525.525 0 100 1.05.525.525 0 000-1.05zM9.903 5.245A3.676 3.676 0 006.23 8.917a3.676 3.676 0 003.672 3.671 3.676 3.676 0 003.671-3.671 3.676 3.676 0 00-3.671-3.672z"/><defs><linearGradient id="bpaint0_linear" x1="9.868" y1="0" x2="9.868" y2="17.903" gradientUnits="userSpaceOnUse"><stop stop-color="#F200A3"/><stop offset=".495" stop-color="red"/><stop offset="1" stop-color="#FFC100"/></linearGradient><linearGradient id="bpaint1_linear" x1="9.868" y1="0" x2="9.868" y2="17.903" gradientUnits="userSpaceOnUse"><stop stop-color="#F200A3"/><stop offset=".495" stop-color="red"/><stop offset="1" stop-color="#FFC100"/></linearGradient><linearGradient id="bpaint2_linear" x1="9.868" y1="0" x2="9.868" y2="17.903" gradientUnits="userSpaceOnUse"><stop stop-color="#F200A3"/><stop offset=".495" stop-color="red"/><stop offset="1" stop-color="#FFC100"/></linearGradient></defs></svg><svg viewBox="0 0 761 157" id="logo" xmlns="http://www.w3.org/2000/svg"><path fill-rule="evenodd" clip-rule="evenodd" d="M0 0l31.2 16.564v108.183H156V156H0V0z"/><path fill-rule="evenodd" clip-rule="evenodd" d="M62.5 94V32l15.267 8.397L93.5 32.154V94h-31zM125 94V16.416L156 0v94h-31z"/><path d="M288.47 101.8h-37.44V38.23c0-2.99-1.43-3.77-3.77-3.77h-12.87c-2.34 0-3.77.78-3.77 3.77v78c0 2.34.78 3.77 3.77 3.77h54.08c2.99 0 3.77-1.43 3.77-3.77v-10.66c0-2.34-.78-3.77-3.77-3.77zm101.014-67.47h-12.48c-4.29 0-4.94 2.86-5.85 4.42l-17.94 31.98-17.81-31.98c-1.04-1.56-1.56-4.42-5.98-4.42h-12.87c-2.99 0-3.77 1.43-3.77 3.77v78.13c0 2.99 1.43 3.77 3.77 3.77h12.87c2.34 0 3.77-.78 3.77-3.77V72.16l13.13 22.75c.65 1.04 1.69 2.73 3.64 2.73h6.5c1.95 0 3.12-1.69 3.77-2.73l13-22.75v44.07c0 2.99 1.43 3.77 3.77 3.77h12.48c2.34 0 3.77-.78 3.77-3.77V38.1c0-2.34-.78-3.77-3.77-3.77zm103.038 82.03l-28.73-77.87c-1.17-2.73-2.47-4.03-5.33-4.03h-12.48c-2.86 0-4.29 1.3-5.33 4.03l-28.86 77.87c-.65 1.56-.65 3.64 2.21 3.64h13.65c2.86 0 3.9-.78 4.94-3.9l3.64-10.27h31.85l3.64 10.27c1.04 3.12 2.08 3.9 4.94 3.9h13.65c2.86 0 2.86-2.08 2.21-3.64zm-50.05-28.73l9.75-28.73 9.75 28.73h-19.5zm138.226 28.21l-18.33-26.65c8.06-2.73 18.07-12.22 18.07-25.87 0-8.32-2.73-15.73-7.54-20.41-5.46-5.46-11.7-8.32-25.87-8.32h-32.76c-2.99 0-3.64 1.43-3.64 3.77v77.87c0 2.99 1.3 3.77 3.64 3.77h12.87c2.34 0 3.77-.78 3.77-3.77V52.79h17.29c6.76 0 11.96 4.29 11.96 11.05 0 6.11-5.98 10.53-12.35 10.53h-2.6c-2.99 0-3.77 1.43-3.77 3.77v10.4c0 3.64.26 5.07 1.43 6.63l14.04 20.93c1.82 2.73 3.38 3.9 6.5 3.9h15.34c2.47 0 3.12-2.34 1.95-4.16zm94.252-81.38H657.4c-2.99 0-3.9.26-6.5 3.12l-26.91 29.64V38.23c0-2.99-1.43-3.77-3.64-3.77h-12.87c-2.47 0-3.77.78-3.77 3.77v78c0 2.99 1.3 3.77 3.77 3.77h12.87c2.21 0 3.64-.78 3.64-3.77V93.09l8.06-8.45c7.02 11.7 18.59 31.2 18.59 31.2 1.69 2.73 3.38 4.16 6.5 4.16H673c2.47 0 2.99-2.47 1.95-4.16L647 69.82l29.25-31.72c1.17-1.17 1.17-3.64-1.3-3.64zm78.168 0h-60.32c-2.99 0-3.77 1.43-3.77 3.77v10.79c0 2.34.78 3.77 3.77 3.77h20.02v63.44c0 2.99 1.43 3.77 3.77 3.77h12.87c2.34 0 3.77-.78 3.77-3.77V52.79h19.89c2.99 0 3.77-1.43 3.77-3.77V38.23c0-2.34-.78-3.77-3.77-3.77z"/></svg><svg viewBox="0 0 25 22" id="market" xmlns="http://www.w3.org/2000/svg"><path d="M.5 1h3.68c.46 0 .92.444 1.38.889.46.444.92 2.222.92 2.222l.03.445m3.152 14.666h-.92S7.4 18.778 7.4 17.89s-.356-5.333-.356-5.333m2.618 6.666s0-1.778 1.84-1.778 1.84 1.778 1.84 1.778m-3.68 0s0 1.778 1.84 1.778 1.84-1.778 1.84-1.778m0 0h3.68m0 0s0-1.778 1.84-1.778 1.84 1.778 1.84 1.778 0 1.778-1.84 1.778-1.84-1.778-1.84-1.778zM6.51 4.556H23.5v6.666c0 1.334-1.84 1.334-1.84 1.334H7.044m-.534-8l.534 8"/></svg><svg viewBox="0 0 18 17" id="menu" xmlns="http://www.w3.org/2000/svg"><path d="M0 6h2.5M5 6h2.5M10 6h2.5M0 11h2.5M5 11h2.5m2.5 0h2.5M0 16h2.5M5 16h2.5m2.5 0h2.5M15 6h2.5M15 11h2.5M15 16h2.5M0 1h2.5M5 1h2.5M10 1h2.5M15 1h2.5"/></svg><svg viewBox="0 0 22 22" id="phone" xmlns="http://www.w3.org/2000/svg"><path fill-rule="evenodd" clip-rule="evenodd" d="M7.889 5.68a.707.707 0 00.164-.864L5.829.727a.707.707 0 00-.894-.324L.76 2.003a.703.703 0 00-.44.672C.384 4.699.893 9.7 5.385 14.912c4.491 5.211 9.362 6.452 11.355 6.813.29.051.58-.083.73-.336l2.198-3.893a.706.706 0 00-.187-.93l-3.716-2.802a.707.707 0 00-.88.034l-1.694 1.46a.702.702 0 01-.601.159c-.774-.158-2.692-.743-4.498-2.838C6.286 10.484 5.99 8.501 5.95 7.712a.702.702 0 01.244-.571l1.696-1.46zm-2.347.702c-.401.344-.62.855-.592 1.383.05.95.399 3.164 2.384 5.467 1.985 2.303 4.123 2.975 5.056 3.165a1.702 1.702 0 001.454-.382h.002l1.512-1.305 3.32 2.504-1.97 3.487c-1.977-.384-6.428-1.64-10.567-6.442C2.002 9.456 1.417 4.868 1.328 2.857l3.74-1.434 1.988 3.654-1.513 1.304-.001.001zM12.932 1.286l.062-.497.062-.496h.002l.004.001.01.002.04.005.143.023c.121.021.294.054.508.103A11.5 11.5 0 0115.43.95c1.3.52 2.902 1.446 3.98 3.062a9.77 9.77 0 011.58 4.347c.067.593.067 1.088.05 1.439a6.67 6.67 0 01-.046.526l-.005.033-.001.01v.003c0 .001 0 .002-.494-.08a88.745 88.745 0 00-.493-.082v-.003l.003-.02.01-.085a5.62 5.62 0 00.027-.35 8.769 8.769 0 00-1.463-5.183c-.923-1.384-2.32-2.208-3.52-2.688a10.496 10.496 0 00-1.973-.57 4.968 4.968 0 00-.119-.019l-.028-.004h-.006zm-.46 3l.059-.497.06-.496h.003l.009.002.027.003.098.015a8.031 8.031 0 011.47.404c.874.334 1.971.934 2.713 1.997.72 1.03.99 2.06 1.08 2.833.044.387.045.711.033.942a4.243 4.243 0 01-.032.351l-.004.023v.008l-.001.003s0 .002-.493-.085L17 9.704l.002-.009.006-.048c.005-.046.012-.116.017-.208.009-.184.009-.452-.029-.776a5.185 5.185 0 00-.906-2.377c-.581-.832-1.47-1.337-2.25-1.635a7.033 7.033 0 00-1.275-.35 3.36 3.36 0 00-.075-.012l-.017-.003h-.003z"/></svg><svg viewBox="0 0 21 23" id="profile" xmlns="http://www.w3.org/2000/svg"><path d="M7.184 12.87S1.5 15.152 1.5 17.89C1.5 20.631 4.342 22 6.237 22h8.526c1.895 0 4.737-1.37 4.737-4.109s-5.684-5.021-5.684-5.021M10.5 1C8.132 1 6.237 3.693 6.237 6.478c0 2.785 1.895 5.479 4.263 5.479s4.263-2.74 4.263-5.479S12.868 1 10.5 1z"/></svg><svg viewBox="0 0 21 17" id="tg" xmlns="http://www.w3.org/2000/svg"><path d="M8.568 11.148l-.339 4.713c.485 0 .694-.206.946-.453l2.27-2.148 4.704 3.41c.863.476 1.471.226 1.704-.785L20.94 1.56c.274-1.263-.46-1.757-1.301-1.447L1.489 6.993c-1.239.475-1.22 1.159-.21 1.469l4.64 1.429 10.779-6.677c.507-.333.968-.149.589.184l-8.72 7.75z"/></svg><svg viewBox="0 0 23 14" id="vk" xmlns="http://www.w3.org/2000/svg"><path d="M22.306 11.964c-.06-.101-.434-.91-2.235-2.575-1.885-1.743-1.632-1.46.639-4.473 1.383-1.835 1.935-2.956 1.762-3.435-.164-.457-1.181-.336-1.181-.336l-3.382.02s-.25-.034-.438.076c-.181.11-.298.362-.298.362s-.536 1.42-1.25 2.628c-1.507 2.548-2.11 2.682-2.357 2.524-.573-.368-.43-1.482-.43-2.272 0-2.47.377-3.5-.732-3.766-.369-.088-.639-.147-1.58-.157-1.207-.012-2.23.005-2.808.286-.385.188-.682.607-.5.63.223.03.73.137.998.5.348.47.335 1.526.335 1.526s.2 2.907-.466 3.269C7.926 7.019 7.3 6.513 5.957 4.2c-.688-1.184-1.209-2.494-1.209-2.494s-.1-.243-.278-.374c-.217-.158-.52-.208-.52-.208l-3.217.02s-.482.013-.66.222c-.157.186-.012.57-.012.57s2.518 5.866 5.368 8.823c2.615 2.71 5.584 2.533 5.584 2.533h1.345s.406-.045.613-.268c.191-.204.184-.588.184-.588s-.027-1.798.812-2.062c.826-.26 1.886 1.737 3.01 2.506.85.581 1.496.454 1.496.454l3.006-.042s1.573-.097.827-1.328z"/></svg></svg>